<svg width="161" height="50" viewBox="0 0 161 50" fill="none" xmlns="http://www.w3.org/2000/svg">
<path d="M155.619 50H5.61914C2.86914 50 0.619141 47.75 0.619141 45V5C0.619141 2.25 2.86914 0 5.61914 0H155.619C158.369 0 160.619 2.25 160.619 5V45C160.619 47.75 158.369 50 155.619 50Z" fill="white"/>
<path d="M34.3687 24.7498C34.3687 20.8748 37.6187 18.9998 37.7437 18.8748C35.8687 16.2498 33.1187 15.8748 32.1187 15.7498C29.7437 15.4998 27.3687 17.1248 26.2437 17.1248C24.9937 17.1248 23.1187 15.7498 21.1187 15.7498C18.4937 15.7498 16.1187 17.2498 14.7437 19.6248C11.9937 24.3748 13.9937 31.3748 16.6187 35.2498C17.9937 37.1248 19.4937 39.2498 21.4937 39.1248C23.4937 38.9998 24.2437 37.8748 26.6187 37.8748C28.9937 37.8748 29.6187 39.1248 31.7437 39.1248C33.8687 39.1248 35.2437 37.2498 36.4937 35.3748C37.9937 33.2498 38.6187 31.1248 38.6187 30.9998C38.4937 30.8748 34.3687 29.3748 34.3687 24.7498Z" fill="black"/>
<path d="M30.4943 13.25C31.4943 11.875 32.2443 10.125 32.1193 8.25C30.6193 8.375 28.6193 9.25 27.6193 10.625C26.6193 11.75 25.7443 13.625 25.9943 15.375C27.6193 15.5 29.3693 14.5 30.4943 13.25Z" fill="black"/>
<path d="M62.8691 38.875H60.1191L58.6191 34.125H53.3691L51.9941 38.875H49.3691L54.6191 22.75H57.8691L62.8691 38.875ZM58.1191 32.125L56.7441 27.875C56.6191 27.5 56.3691 26.375 55.8691 24.875C55.7441 25.5 55.4941 26.625 55.1191 27.875L53.7441 32.125H58.1191Z" fill="black"/>
<path d="M76.2441 33C76.2441 35 75.7441 36.5 74.6191 37.75C73.6191 38.75 72.4941 39.25 70.9941 39.25C69.4941 39.25 68.3691 38.75 67.7441 37.625V43.75H65.1191V31.25C65.1191 30 65.1191 28.75 64.9941 27.375H67.2441L67.3691 29.25C68.2441 27.875 69.4941 27.125 71.2441 27.125C72.6191 27.125 73.7441 27.625 74.6191 28.75C75.7441 29.75 76.2441 31.125 76.2441 33ZM73.6191 33C73.6191 31.875 73.3691 30.875 72.8691 30.25C72.3691 29.5 71.6191 29.125 70.6191 29.125C69.9941 29.125 69.3691 29.375 68.8691 29.75C68.3691 30.125 67.9941 30.75 67.8691 31.375C67.7441 31.75 67.7441 32 67.7441 32.125V34.125C67.7441 35 67.9941 35.625 68.4941 36.25C68.9941 36.875 69.7441 37.125 70.4941 37.125C71.4941 37.125 72.2441 36.75 72.7441 36C73.3691 35.25 73.6191 34.25 73.6191 33Z" fill="black"/>
<path d="M89.6191 33C89.6191 35 89.1191 36.5 87.9941 37.75C86.9941 38.75 85.8691 39.25 84.3691 39.25C82.8691 39.25 81.7441 38.75 81.1191 37.625V43.75H78.4941V31.25C78.4941 30 78.4941 28.75 78.3691 27.375H80.6191L80.7441 29.25C81.6191 27.875 82.8691 27.125 84.6191 27.125C85.9941 27.125 87.1191 27.625 87.9941 28.75C89.1191 29.75 89.6191 31.125 89.6191 33ZM86.9941 33C86.9941 31.875 86.7441 30.875 86.2441 30.25C85.7441 29.5 84.9941 29.125 83.9941 29.125C83.3691 29.125 82.7441 29.375 82.2441 29.75C81.7441 30.125 81.3691 30.75 81.2441 31.375C81.1191 31.75 81.1191 32 81.1191 32.125V34.125C81.1191 35 81.3691 35.625 81.8691 36.25C82.3691 36.875 83.1191 37.125 83.8691 37.125C84.8691 37.125 85.6191 36.75 86.1191 36C86.7441 35.25 86.9941 34.25 86.9941 33Z" fill="black"/>
<path d="M104.619 34.375C104.619 35.75 104.119 36.875 103.244 37.75C102.244 38.75 100.744 39.125 98.8691 39.125C97.1191 39.125 95.7441 38.75 94.7441 38.125L95.3691 36C96.4941 36.625 97.7441 37 99.1191 37C100.119 37 100.869 36.75 101.369 36.375C101.869 35.875 102.119 35.375 102.119 34.625C102.119 34 101.869 33.375 101.494 33C100.994 32.5 100.244 32.125 99.2441 31.75C96.3691 30.75 94.9941 29.125 94.9941 27.125C94.9941 25.75 95.4941 24.75 96.4941 23.875C97.4941 23 98.7441 22.625 100.494 22.625C101.994 22.625 103.119 22.875 104.119 23.375L103.494 25.5C102.619 25 101.619 24.75 100.369 24.75C99.4941 24.75 98.7441 25 98.2441 25.375C97.8691 25.75 97.6191 26.25 97.6191 26.875C97.6191 27.5 97.8691 28 98.3691 28.5C98.7441 28.875 99.6191 29.25 100.744 29.75C102.119 30.25 103.119 31 103.869 31.75C104.244 32.375 104.619 33.25 104.619 34.375Z" fill="black"/>
<path d="M113.119 29.25H110.244V34.875C110.244 36.25 110.744 37 111.744 37C112.244 37 112.619 37 112.869 36.875L112.994 38.875C112.494 39.125 111.869 39.125 110.994 39.125C109.994 39.125 109.119 38.875 108.619 38.25C107.994 37.625 107.744 36.625 107.744 35.125V29.25H105.994V27.25H107.744V25.125L110.244 24.375V27.25H113.119V29.25Z" fill="black"/>
<path d="M125.994 33C125.994 34.75 125.494 36.25 124.494 37.375C123.369 38.5 121.994 39.125 120.244 39.125C118.494 39.125 117.119 38.5 116.119 37.375C115.119 36.25 114.619 34.875 114.619 33.125C114.619 31.375 115.119 29.875 116.244 28.75C117.244 27.625 118.744 27 120.494 27C122.244 27 123.619 27.625 124.619 28.75C125.494 29.875 125.994 31.25 125.994 33ZM123.244 33.125C123.244 32 122.994 31.125 122.494 30.375C121.994 29.5 121.119 29 120.119 29C119.119 29 118.244 29.5 117.744 30.375C117.244 31.125 116.994 32.125 116.994 33.125C116.994 34.25 117.244 35.125 117.744 35.875C118.244 36.75 119.119 37.25 120.119 37.25C121.119 37.25 121.869 36.75 122.494 35.875C122.994 35.125 123.244 34.125 123.244 33.125Z" fill="black"/>
<path d="M134.369 29.5C134.119 29.5 133.869 29.375 133.494 29.375C132.619 29.375 131.869 29.75 131.369 30.375C130.994 31 130.744 31.75 130.744 32.625V38.75H128.119V30.75C128.119 29.375 128.119 28.25 127.994 27.125H130.244L130.369 29.375H130.494C130.744 28.625 131.244 28 131.744 27.5C132.369 27.125 132.994 26.875 133.619 26.875C133.869 26.875 134.119 26.875 134.244 26.875V29.5H134.369Z" fill="black"/>
<path d="M145.869 32.5C145.869 33 145.869 33.375 145.744 33.625H137.994C137.994 34.75 138.369 35.625 139.119 36.25C139.744 36.75 140.619 37.125 141.619 37.125C142.744 37.125 143.869 37 144.744 36.625L145.119 38.375C143.994 38.875 142.744 39.125 141.244 39.125C139.494 39.125 137.994 38.625 136.994 37.5C135.994 36.5 135.494 35 135.494 33.25C135.494 31.5 135.994 30 136.869 28.875C137.869 27.625 139.244 27 140.994 27C142.619 27 143.994 27.625 144.744 28.875C145.619 29.875 145.869 31.125 145.869 32.5ZM143.494 31.875C143.494 31.125 143.369 30.5 142.994 29.875C142.494 29.125 141.869 28.75 140.994 28.75C140.119 28.75 139.494 29.125 138.994 29.75C138.619 30.25 138.369 31 138.244 31.75H143.494V31.875Z" fill="black"/>
<path d="M57.3691 12.875C57.3691 14.25 56.9941 15.375 56.1191 16.125C55.3691 16.75 54.2441 17.125 52.7441 17.125C51.9941 17.125 51.3691 17.125 50.8691 17V9.25C51.4941 9.125 52.2441 9.125 53.1191 9.125C54.4941 9.125 55.4941 9.375 56.2441 10C56.8691 10.625 57.3691 11.625 57.3691 12.875ZM55.9941 12.875C55.9941 12 55.7441 11.25 55.2441 10.75C54.7441 10.25 53.9941 10 53.1191 10C52.7441 10 52.3691 10 52.1191 10.125V16C52.2441 16 52.6191 16 52.9941 16C53.9941 16 54.7441 15.75 55.2441 15.25C55.7441 14.75 55.9941 13.875 55.9941 12.875Z" fill="black"/>
<path d="M64.3691 14.125C64.3691 15 64.1191 15.75 63.6191 16.25C63.1191 16.875 62.3691 17.125 61.4941 17.125C60.6191 17.125 59.9941 16.875 59.4941 16.25C58.9941 15.75 58.7441 15 58.7441 14.125C58.7441 13.25 58.9941 12.5 59.4941 12C59.9941 11.375 60.7441 11.125 61.6191 11.125C62.4941 11.125 63.1191 11.375 63.6191 12C64.1191 12.5 64.3691 13.25 64.3691 14.125ZM63.1191 14.125C63.1191 13.625 62.9941 13.125 62.7441 12.75C62.4941 12.25 62.1191 12.125 61.6191 12.125C61.1191 12.125 60.7441 12.375 60.4941 12.75C60.2441 13.125 60.1191 13.625 60.1191 14.125C60.1191 14.625 60.2441 15.125 60.4941 15.5C60.7441 16 61.1191 16.125 61.6191 16.125C62.1191 16.125 62.4941 15.875 62.7441 15.375C62.9941 15.125 63.1191 14.625 63.1191 14.125Z" fill="black"/>
<path d="M73.9941 11.25L72.2441 17H71.1191L70.3691 14.5C70.1191 13.875 69.9941 13.25 69.8691 12.625C69.7441 13.25 69.6191 13.875 69.3691 14.5L68.6191 17H67.4941L65.6191 11.25H66.8691L67.4941 14C67.6191 14.625 67.7441 15.25 67.8691 15.875C67.9941 15.375 68.1191 14.75 68.3691 14L69.1191 11.25H70.1191L70.8691 13.875C71.1191 14.5 71.2441 15.125 71.3691 15.75C71.4941 15.125 71.6191 14.5 71.7441 13.875L72.4941 11.25H73.9941Z" fill="black"/>
<path d="M80.4941 17H79.2441V13.75C79.2441 12.75 78.8691 12.25 78.1191 12.25C77.7441 12.25 77.4941 12.375 77.2441 12.625C76.9941 12.875 76.8691 13.25 76.8691 13.625V17H75.6191V12.875C75.6191 12.375 75.6191 11.875 75.6191 11.25H76.7441V12.125C76.8691 11.875 77.1191 11.625 77.3691 11.375C77.7441 11.125 78.1191 11 78.4941 11C78.9941 11 79.4941 11.125 79.8691 11.5C80.3691 11.875 80.4941 12.5 80.4941 13.375V17Z" fill="black"/>
<path d="M83.9941 17H82.7441V8.625H83.9941V17Z" fill="black"/>
<path d="M91.4941 14.125C91.4941 15 91.2441 15.75 90.7441 16.25C90.2441 16.875 89.4941 17.125 88.6191 17.125C87.7441 17.125 87.1191 16.875 86.6191 16.25C86.1191 15.75 85.8691 15 85.8691 14.125C85.8691 13.25 86.1191 12.5 86.6191 12C87.1191 11.5 87.8691 11.125 88.7441 11.125C89.6191 11.125 90.2441 11.375 90.7441 12C91.2441 12.5 91.4941 13.25 91.4941 14.125ZM90.2441 14.125C90.2441 13.625 90.1191 13.125 89.8691 12.75C89.6191 12.25 89.2441 12.125 88.7441 12.125C88.2441 12.125 87.8691 12.375 87.6191 12.75C87.3691 13.125 87.2441 13.625 87.2441 14.125C87.2441 14.625 87.3691 15.125 87.6191 15.5C87.8691 16 88.2441 16.125 88.7441 16.125C89.2441 16.125 89.6191 15.875 89.8691 15.375C90.1191 15.125 90.2441 14.625 90.2441 14.125Z" fill="black"/>
<path d="M97.6191 17H96.4941L96.3691 16.375C95.9941 16.875 95.3691 17.125 94.7441 17.125C94.2441 17.125 93.7441 17 93.4941 16.625C93.2441 16.25 92.9941 15.875 92.9941 15.5C92.9941 14.75 93.2441 14.25 93.8691 13.875C94.4941 13.5 95.2441 13.375 96.3691 13.375V13.25C96.3691 12.5 95.9941 12.125 95.2441 12.125C94.6191 12.125 94.2441 12.25 93.7441 12.5L93.4941 11.625C93.9941 11.25 94.6191 11.125 95.4941 11.125C96.9941 11.125 97.7441 11.875 97.7441 13.5V15.625C97.6191 16.25 97.6191 16.625 97.6191 17ZM96.3691 15V14.125C94.9941 14.125 94.2441 14.5 94.2441 15.25C94.2441 15.5 94.3691 15.75 94.4941 15.875C94.6191 16 94.8691 16.125 95.1191 16.125C95.3691 16.125 95.6191 16 95.8691 15.875C96.1191 15.75 96.2441 15.5 96.3691 15.25C96.3691 15.25 96.3691 15.125 96.3691 15Z" fill="black"/>
<path d="M104.869 17H103.744V16.125C103.369 16.875 102.744 17.125 101.869 17.125C101.119 17.125 100.619 16.875 100.119 16.375C99.6191 15.875 99.4941 15.125 99.4941 14.25C99.4941 13.375 99.7441 12.625 100.244 12C100.744 11.5 101.369 11.25 101.994 11.25C102.744 11.25 103.244 11.5 103.619 12V8.75H104.869V15.5C104.869 16 104.869 16.5 104.869 17ZM103.619 14.625V13.625C103.619 13.5 103.619 13.375 103.619 13.25C103.494 13 103.369 12.75 103.119 12.5C102.869 12.25 102.619 12.25 102.244 12.25C101.744 12.25 101.369 12.5 101.119 12.875C100.869 13.25 100.744 13.75 100.744 14.375C100.744 15 100.869 15.375 101.119 15.75C101.369 16.125 101.744 16.375 102.244 16.375C102.619 16.375 102.994 16.25 103.244 15.875C103.494 15.375 103.619 15 103.619 14.625Z" fill="black"/>
<path d="M115.744 14.125C115.744 15 115.494 15.75 114.994 16.25C114.494 16.875 113.744 17.125 112.869 17.125C111.994 17.125 111.369 16.875 110.869 16.25C110.369 15.75 110.119 15 110.119 14.125C110.119 13.25 110.369 12.5 110.869 12C111.369 11.375 112.119 11.125 112.994 11.125C113.869 11.125 114.494 11.375 114.994 12C115.494 12.5 115.744 13.25 115.744 14.125ZM114.369 14.125C114.369 13.625 114.244 13.125 113.994 12.75C113.744 12.25 113.369 12.125 112.869 12.125C112.369 12.125 111.994 12.375 111.744 12.75C111.494 13.125 111.369 13.625 111.369 14.125C111.369 14.625 111.494 15.125 111.744 15.5C111.994 16 112.369 16.125 112.869 16.125C113.369 16.125 113.744 15.875 113.994 15.375C114.244 15.125 114.369 14.625 114.369 14.125Z" fill="black"/>
<path d="M122.619 17H121.369V13.75C121.369 12.75 120.994 12.25 120.244 12.25C119.869 12.25 119.619 12.375 119.369 12.625C119.119 12.875 118.994 13.25 118.994 13.625V17H117.744V12.875C117.744 12.375 117.744 11.875 117.744 11.25H118.869V12.125C118.994 11.875 119.244 11.625 119.494 11.375C119.869 11.125 120.244 11 120.619 11C121.119 11 121.619 11.125 121.994 11.5C122.494 11.875 122.619 12.5 122.619 13.375V17Z" fill="black"/>
<path d="M131.119 12.25H129.744V15C129.744 15.75 129.994 16 130.494 16C130.744 16 130.869 16 131.119 16V17C130.869 17.125 130.494 17.125 130.119 17.125C129.619 17.125 129.244 17 128.994 16.625C128.744 16.375 128.619 15.75 128.619 15.125V12.25H127.744V11.25H128.619V10.25L129.869 9.875V11.25H131.244V12.25H131.119Z" fill="black"/>
<path d="M137.869 17H136.619V13.75C136.619 12.75 136.244 12.25 135.494 12.25C134.869 12.25 134.494 12.5 134.244 13.125C134.244 13.25 134.244 13.375 134.244 13.625V17H132.994V8.625H134.244V12.125C134.619 11.5 135.244 11.125 135.994 11.125C136.494 11.125 136.994 11.25 137.244 11.625C137.619 12 137.869 12.75 137.869 13.5V17Z" fill="black"/>
<path d="M144.744 13.875C144.744 14.125 144.744 14.25 144.744 14.5H140.994C140.994 15.125 141.244 15.5 141.494 15.75C141.869 16 142.244 16.125 142.744 16.125C143.369 16.125 143.869 16 144.244 15.875L144.494 16.75C143.994 17 143.369 17.125 142.619 17.125C141.744 17.125 140.994 16.875 140.494 16.375C139.994 15.875 139.744 15.125 139.744 14.25C139.744 13.375 139.994 12.625 140.494 12.125C140.994 11.5 141.619 11.25 142.494 11.25C143.369 11.25 143.994 11.5 144.369 12.125C144.619 12.5 144.744 13.125 144.744 13.875ZM143.619 13.5C143.619 13.125 143.494 12.75 143.369 12.5C143.119 12.125 142.869 12 142.369 12C141.994 12 141.619 12.125 141.369 12.5C141.119 12.75 140.994 13.125 140.994 13.5H143.619Z" fill="black"/>
</svg>
