<svg width="168" height="50" viewBox="0 0 168 50" fill="none" xmlns="http://www.w3.org/2000/svg">
<path d="M161.411 50H6.20811C2.79365 50 0 47.1875 0 43.75V6.25C0 2.8125 2.79365 0 6.20811 0H161.411C164.825 0 167.619 2.8125 167.619 6.25V43.75C167.619 47.1875 164.825 50 161.411 50Z" fill="white"/>
<path d="M58.8777 12.8261C58.8777 13.8739 58.5673 14.7095 57.9465 15.3207C57.2512 16.0566 56.3448 16.4308 55.215 16.4308C54.1348 16.4308 53.2159 16.0566 52.471 15.3082C51.726 14.5599 51.3535 13.6244 51.3535 12.5268C51.3535 11.4292 51.726 10.4937 52.471 9.74537C53.2159 8.99701 54.1348 8.61035 55.215 8.61035C55.7613 8.61035 56.2828 8.71013 56.767 8.89722C57.2512 9.09679 57.6485 9.37119 57.9589 9.72043L57.2761 10.4064C57.0526 10.132 56.7546 9.90752 56.3821 9.75785C56.0141 9.59699 55.6163 9.51622 55.215 9.52086C54.4079 9.52086 53.7126 9.80774 53.1539 10.369C52.5951 10.9428 52.322 11.6537 52.322 12.5143C52.322 13.3749 52.5951 14.0859 53.1539 14.6596C53.7126 15.2209 54.3955 15.5078 55.215 15.5078C55.9599 15.5078 56.5683 15.2958 57.065 14.8842C57.5616 14.4726 57.8472 13.8863 57.9217 13.1629H55.215V12.2649H58.8281C58.8529 12.4644 58.8777 12.6515 58.8777 12.8261ZM64.6016 8.78497V9.70795H61.212V12.0778H64.2664V12.9758H61.212V15.3456H64.6016V16.2686H60.2559V8.78497H64.6016ZM68.6369 9.70795V16.2686H67.6809V9.70795H65.5949V8.78497H70.7104V9.70795H68.6369ZM75.3789 16.2686H74.4229V8.78497H75.3789V16.2686ZM79.6253 9.70795V16.2686H78.6692V9.70795H76.5833V8.78497H81.6988V9.70795H79.6253ZM92.4885 12.5268C92.4885 13.6369 92.116 14.5599 91.3834 15.3082C90.6385 16.0566 89.7321 16.4308 88.6519 16.4308C87.5716 16.4308 86.6653 16.0566 85.9203 15.3082C85.1877 14.5599 84.8152 13.6369 84.8152 12.5268C84.8152 11.4167 85.1877 10.4937 85.9203 9.74537C86.6528 8.99701 87.5592 8.61035 88.6519 8.61035C89.7321 8.61035 90.6385 8.98453 91.3834 9.74537C92.1284 10.5062 92.4885 11.4292 92.4885 12.5268ZM85.8085 12.5268C85.8085 13.3874 86.0817 14.1108 86.6156 14.6721C87.1619 15.2334 87.8448 15.5203 88.6519 15.5203C89.4589 15.5203 90.1418 15.2334 90.6757 14.6721C91.222 14.1108 91.4952 13.3999 91.4952 12.5268C91.4952 11.6537 91.222 10.9428 90.6757 10.3815C90.1294 9.82021 89.4589 9.53334 88.6519 9.53334C87.8448 9.53334 87.1619 9.82021 86.6156 10.3815C86.0817 10.9428 85.8085 11.6662 85.8085 12.5268ZM94.7855 16.2686H93.8294V8.78497H94.9966L98.6221 14.6098H98.6593L98.6221 13.1629V8.78497H99.5781V16.2686H98.5848L94.7979 10.1694H94.7606L94.7979 11.6163V16.2686H94.7855Z" fill="black" stroke="black" stroke-width="0.5" stroke-miterlimit="10"/>
<path d="M84.604 27.1825C81.6862 27.1825 79.3023 29.4151 79.3023 32.4834C79.3023 35.5393 81.6862 37.7844 84.604 37.7844C87.5218 37.7844 89.9058 35.5393 89.9058 32.4834C89.9058 29.4151 87.5218 27.1825 84.604 27.1825ZM84.604 35.7014C83.0023 35.7014 81.6241 34.3793 81.6241 32.4834C81.6241 30.5751 83.0023 29.2655 84.604 29.2655C86.2057 29.2655 87.5839 30.5751 87.5839 32.4834C87.5839 34.3793 86.1933 35.7014 84.604 35.7014ZM73.0321 27.1825C70.1143 27.1825 67.7304 29.4151 67.7304 32.4834C67.7304 35.5393 70.1143 37.7844 73.0321 37.7844C75.9499 37.7844 78.3338 35.5393 78.3338 32.4834C78.3338 29.4151 75.9499 27.1825 73.0321 27.1825ZM73.0321 35.7014C71.4304 35.7014 70.0522 34.3793 70.0522 32.4834C70.0522 30.5751 71.4304 29.2655 73.0321 29.2655C74.6338 29.2655 76.012 30.5751 76.012 32.4834C76.012 34.3793 74.6338 35.7014 73.0321 35.7014ZM59.2749 28.8164V31.0615H64.6387C64.4773 32.3213 64.0552 33.2568 63.4219 33.8929C62.6397 34.6786 61.4229 35.5393 59.2873 35.5393C55.9846 35.5393 53.402 32.8701 53.402 29.5523C53.402 26.2346 55.9846 23.5654 59.2873 23.5654C61.0629 23.5654 62.3666 24.2639 63.3226 25.1744L64.8995 23.5904C63.5585 22.3057 61.783 21.3203 59.2749 21.3203C54.7554 21.3203 50.9561 25.0123 50.9561 29.5648C50.9561 34.1049 54.7554 37.8093 59.2749 37.8093C61.7209 37.8093 63.5585 37.0111 64.9988 35.5018C66.4763 34.0176 66.9357 31.9222 66.9357 30.2383C66.9357 29.7145 66.8985 29.228 66.8116 28.8289H59.2749V28.8164ZM115.533 30.5626C115.098 29.3777 113.757 27.1825 111.013 27.1825C108.294 27.1825 106.034 29.3278 106.034 32.4834C106.034 35.452 108.269 37.7844 111.274 37.7844C113.695 37.7844 115.098 36.3001 115.669 35.4395L113.869 34.2296C113.273 35.1152 112.454 35.7014 111.274 35.7014C110.095 35.7014 109.25 35.1651 108.716 34.0924L115.781 31.1613L115.533 30.5626ZM108.331 32.3338C108.269 30.2882 109.908 29.2405 111.088 29.2405C112.007 29.2405 112.789 29.702 113.05 30.3631L108.331 32.3338ZM102.595 37.4725H104.917V21.8816H102.595V37.4725ZM98.7958 28.3674H98.7089C98.1874 27.7438 97.1941 27.1825 95.9276 27.1825C93.283 27.1825 90.8618 29.5149 90.8618 32.5084C90.8618 35.4769 93.283 37.7968 95.9276 37.7968C97.1817 37.7968 98.1874 37.2356 98.7089 36.587H98.7834V37.3478C98.7834 39.3809 97.7031 40.466 95.9649 40.466C94.5494 40.466 93.6679 39.4432 93.3078 38.5826L91.284 39.4308C91.8675 40.8402 93.4071 42.5614 95.9649 42.5614C98.684 42.5614 100.981 40.9525 100.981 37.036V27.5068H98.7834V28.3674H98.7958ZM96.1263 35.7014C94.5246 35.7014 93.1836 34.3544 93.1836 32.5084C93.1836 30.6375 94.5246 29.2779 96.1263 29.2779C97.7031 29.2779 98.9448 30.6499 98.9448 32.5084C98.9572 34.3544 97.7156 35.7014 96.1263 35.7014ZM126.409 21.8816H120.859V37.4725H123.181V31.5605H126.422C128.992 31.5605 131.513 29.6895 131.513 26.721C131.5 23.7525 128.967 21.8816 126.409 21.8816ZM126.459 29.3902H123.169V24.0394H126.459C128.197 24.0394 129.178 25.4862 129.178 26.7085C129.178 27.9309 128.197 29.3902 126.459 29.3902ZM140.787 27.1576C139.111 27.1576 137.373 27.9059 136.653 29.5399L138.714 30.4005C139.149 29.5399 139.968 29.253 140.825 29.253C142.017 29.253 143.246 29.9764 143.258 31.2611V31.4233C142.836 31.1863 141.942 30.8246 140.837 30.8246C138.615 30.8246 136.367 32.0469 136.367 34.3294C136.367 36.4124 138.18 37.7594 140.216 37.7594C141.768 37.7594 142.637 37.0609 143.171 36.2377H143.246V37.4351H145.481V31.4607C145.493 28.7042 143.432 27.1576 140.787 27.1576ZM140.502 35.7014C139.744 35.7014 138.689 35.3148 138.689 34.3793C138.689 33.1819 140.005 32.7204 141.148 32.7204C142.166 32.7204 142.65 32.9449 143.258 33.2443C143.172 33.9194 142.845 34.5403 142.339 34.992C141.832 35.4438 141.179 35.6958 140.502 35.7014ZM153.638 27.4943L150.981 34.2546H150.907L148.15 27.4943H145.655L149.789 36.9487L147.43 42.1997H149.851L156.221 27.4943H153.638ZM132.779 37.4725H135.101V21.8816H132.779V37.4725Z" fill="black"/>
<path d="M25.7155 24.2646L12.4434 38.2785V38.2909C12.587 38.8217 12.8519 39.3124 13.2175 39.7246C13.5831 40.1367 14.0395 40.4592 14.551 40.6669C15.0625 40.8746 15.6153 40.9619 16.1663 40.9219C16.7172 40.8819 17.2515 40.7157 17.7273 40.4364L17.7647 40.4116L32.6943 31.842L25.7155 24.2646Z" fill="#EA4335"/>
<path d="M39.119 21.8799L39.1065 21.8674L32.6527 18.1377L25.375 24.5902L32.6777 31.8632L39.1065 28.1707C39.6751 27.8642 40.1502 27.4105 40.4817 26.8576C40.8132 26.3047 40.9889 25.673 40.9902 25.029C40.9914 24.385 40.8183 23.7526 40.489 23.1984C40.1597 22.6442 39.6864 22.1887 39.119 21.8799Z" fill="#FBBC04"/>
<path d="M12.5663 11.5195C12.4926 11.8212 12.4434 12.1228 12.4434 12.4496V37.5502C12.4434 37.877 12.4803 38.1787 12.5663 38.4803L26.1066 24.6417L12.5663 11.5195Z" fill="#4285F4"/>
<path d="M25.8234 24.9997L32.6943 18.1735L17.768 9.57563C17.2908 9.29217 16.7541 9.12227 16.1998 9.07924C15.6456 9.03621 15.0888 9.1212 14.5731 9.32758C14.0574 9.53395 13.5968 9.85611 13.2273 10.2688C12.8578 10.6815 12.5895 11.1736 12.4434 11.7065L25.8234 24.9997Z" fill="#34A853"/>
</svg>
